<mxfile host="app.diagrams.net" modified="2023-10-10T12:07:51.631Z" agent="Mozilla/5.0 (Windows NT 10.0; Win64; x64) AppleWebKit/537.36 (KHTML, like Gecko) Chrome/117.0.0.0 Safari/537.36" etag="Z-p_C8Ir5AfzY7UhRNS2" version="22.0.4" type="google">
  <diagram name="Page-1" id="mZ3CKDCidOGf5Lt6wi2Q">
    <mxGraphModel grid="1" page="1" gridSize="10" guides="1" tooltips="1" connect="1" arrows="1" fold="1" pageScale="1" pageWidth="850" pageHeight="1100" math="0" shadow="0">
      <root>
        <mxCell id="0" />
        <mxCell id="1" parent="0" />
        <mxCell id="E0bCsigT_9WANNuzd84R-3" value="&lt;font style=&quot;font-size: 14px;&quot;&gt;Writing a proposal&lt;/font&gt;" style="swimlane;fontStyle=0;childLayout=stackLayout;horizontal=1;startSize=30;horizontalStack=0;resizeParent=1;resizeParentMax=0;resizeLast=0;collapsible=1;marginBottom=0;whiteSpace=wrap;html=1;" vertex="1" parent="1">
          <mxGeometry x="417" y="22" width="220" height="330" as="geometry" />
        </mxCell>
        <mxCell id="E0bCsigT_9WANNuzd84R-4" value="&lt;font style=&quot;font-size: 14px;&quot;&gt;&lt;b&gt;Why: &lt;/b&gt;Why there is a need to develop project?&lt;/font&gt;" style="text;strokeColor=none;fillColor=none;align=left;verticalAlign=middle;spacingLeft=4;spacingRight=4;overflow=hidden;points=[[0,0.5],[1,0.5]];portConstraint=eastwest;rotatable=0;whiteSpace=wrap;html=1;" vertex="1" parent="E0bCsigT_9WANNuzd84R-3">
          <mxGeometry y="30" width="220" height="50" as="geometry" />
        </mxCell>
        <mxCell id="E0bCsigT_9WANNuzd84R-8" value="&lt;font style=&quot;font-size: 14px;&quot;&gt;&lt;b&gt;Who:(&lt;/b&gt;Target audience&lt;b&gt;)&amp;nbsp;&lt;/b&gt;Who will use the project?&lt;/font&gt;&lt;span style=&quot;font-size: 14px;&quot;&gt;&lt;br&gt;&lt;/span&gt;" style="text;strokeColor=none;fillColor=none;align=left;verticalAlign=middle;spacingLeft=4;spacingRight=4;overflow=hidden;points=[[0,0.5],[1,0.5]];portConstraint=eastwest;rotatable=0;whiteSpace=wrap;html=1;" vertex="1" parent="E0bCsigT_9WANNuzd84R-3">
          <mxGeometry y="80" width="220" height="50" as="geometry" />
        </mxCell>
        <mxCell id="E0bCsigT_9WANNuzd84R-9" value="&lt;span style=&quot;font-size: 14px;&quot;&gt;&lt;b&gt;What:&lt;/b&gt;&amp;nbsp;What are the Functional Requirements?&lt;/span&gt;" style="text;strokeColor=none;fillColor=none;align=left;verticalAlign=middle;spacingLeft=4;spacingRight=4;overflow=hidden;points=[[0,0.5],[1,0.5]];portConstraint=eastwest;rotatable=0;whiteSpace=wrap;html=1;" vertex="1" parent="E0bCsigT_9WANNuzd84R-3">
          <mxGeometry y="130" width="220" height="50" as="geometry" />
        </mxCell>
        <mxCell id="E0bCsigT_9WANNuzd84R-11" value="&lt;font style=&quot;font-size: 14px;&quot;&gt;&lt;b style=&quot;&quot;&gt;When:(&lt;/b&gt;Deadline&lt;b style=&quot;&quot;&gt;)&amp;nbsp;&lt;/b&gt;When&lt;/font&gt;&lt;span style=&quot;text-indent: -0.19in; background-color: initial; font-family: Calibri; font-size: 14px;&quot;&gt;&lt;font style=&quot;font-size: 14px;&quot;&gt;&amp;nbsp;the project will be completed (a rough estimate)?&lt;/font&gt;&lt;br&gt;&lt;/span&gt;" style="text;strokeColor=none;fillColor=none;align=left;verticalAlign=middle;spacingLeft=4;spacingRight=4;overflow=hidden;points=[[0,0.5],[1,0.5]];portConstraint=eastwest;rotatable=0;whiteSpace=wrap;html=1;" vertex="1" parent="E0bCsigT_9WANNuzd84R-3">
          <mxGeometry y="180" width="220" height="60" as="geometry" />
        </mxCell>
        <mxCell id="E0bCsigT_9WANNuzd84R-12" value="&lt;font style=&quot;font-size: 14px;&quot;&gt;&lt;b&gt;Where:&lt;/b&gt;(Develop &amp;amp; Use) Where&amp;nbsp;&lt;span style=&quot;font-family: Calibri;&quot;&gt;the project will be used after completion(&lt;/span&gt;&lt;span style=&quot;font-family: Calibri;&quot;&gt;e.g&lt;/span&gt;&lt;span style=&quot;font-family: Calibri;&quot;&gt; in school, in &lt;/span&gt;&lt;span style=&quot;font-family: Calibri;&quot;&gt;imanufacturing&lt;/span&gt;&lt;span style=&quot;font-family: Calibri;&quot;&gt; industry, in offices, in security departments.)&lt;/span&gt;&lt;/font&gt;&lt;span style=&quot;text-indent: -0.19in; background-color: initial; font-family: Calibri; font-size: 14px;&quot;&gt;&lt;br&gt;&lt;/span&gt;" style="text;strokeColor=none;fillColor=none;align=left;verticalAlign=middle;spacingLeft=4;spacingRight=4;overflow=hidden;points=[[0,0.5],[1,0.5]];portConstraint=eastwest;rotatable=0;whiteSpace=wrap;html=1;" vertex="1" parent="E0bCsigT_9WANNuzd84R-3">
          <mxGeometry y="240" width="220" height="90" as="geometry" />
        </mxCell>
        <mxCell id="E0bCsigT_9WANNuzd84R-15" value="" style="rounded=1;whiteSpace=wrap;html=1;" vertex="1" parent="1">
          <mxGeometry x="40" y="155" width="80" height="50" as="geometry" />
        </mxCell>
        <mxCell id="E0bCsigT_9WANNuzd84R-16" value="Writing a Proposal" style="text;html=1;strokeColor=none;fillColor=none;align=center;verticalAlign=middle;whiteSpace=wrap;rounded=0;" vertex="1" parent="1">
          <mxGeometry x="45" y="160" width="70" height="34" as="geometry" />
        </mxCell>
        <mxCell id="E0bCsigT_9WANNuzd84R-17" value="" style="rounded=1;whiteSpace=wrap;html=1;" vertex="1" parent="1">
          <mxGeometry x="240" y="47" width="70" height="30" as="geometry" />
        </mxCell>
        <mxCell id="E0bCsigT_9WANNuzd84R-18" value="Why" style="text;html=1;strokeColor=none;fillColor=none;align=center;verticalAlign=middle;whiteSpace=wrap;rounded=0;" vertex="1" parent="1">
          <mxGeometry x="245" y="52" width="60" height="20" as="geometry" />
        </mxCell>
        <mxCell id="E0bCsigT_9WANNuzd84R-19" value="" style="rounded=1;whiteSpace=wrap;html=1;" vertex="1" parent="1">
          <mxGeometry x="240" y="100" width="70" height="30" as="geometry" />
        </mxCell>
        <mxCell id="E0bCsigT_9WANNuzd84R-20" value="Who" style="text;html=1;strokeColor=none;fillColor=none;align=center;verticalAlign=middle;whiteSpace=wrap;rounded=0;" vertex="1" parent="1">
          <mxGeometry x="245" y="105" width="60" height="20" as="geometry" />
        </mxCell>
        <mxCell id="E0bCsigT_9WANNuzd84R-21" value="" style="rounded=1;whiteSpace=wrap;html=1;" vertex="1" parent="1">
          <mxGeometry x="240" y="151" width="70" height="30" as="geometry" />
        </mxCell>
        <mxCell id="E0bCsigT_9WANNuzd84R-22" value="What" style="text;html=1;strokeColor=none;fillColor=none;align=center;verticalAlign=middle;whiteSpace=wrap;rounded=0;" vertex="1" parent="1">
          <mxGeometry x="245" y="156" width="60" height="20" as="geometry" />
        </mxCell>
        <mxCell id="E0bCsigT_9WANNuzd84R-23" value="" style="rounded=1;whiteSpace=wrap;html=1;" vertex="1" parent="1">
          <mxGeometry x="239" y="198" width="70" height="30" as="geometry" />
        </mxCell>
        <mxCell id="E0bCsigT_9WANNuzd84R-24" value="When" style="text;html=1;strokeColor=none;fillColor=none;align=center;verticalAlign=middle;whiteSpace=wrap;rounded=0;" vertex="1" parent="1">
          <mxGeometry x="244" y="203" width="60" height="20" as="geometry" />
        </mxCell>
        <mxCell id="E0bCsigT_9WANNuzd84R-27" value="" style="rounded=1;whiteSpace=wrap;html=1;" vertex="1" parent="1">
          <mxGeometry x="239" y="250" width="70" height="30" as="geometry" />
        </mxCell>
        <mxCell id="E0bCsigT_9WANNuzd84R-28" value="Where" style="text;html=1;strokeColor=none;fillColor=none;align=center;verticalAlign=middle;whiteSpace=wrap;rounded=0;" vertex="1" parent="1">
          <mxGeometry x="251" y="262.5" width="46" height="5" as="geometry" />
        </mxCell>
        <mxCell id="E0bCsigT_9WANNuzd84R-29" value="" style="endArrow=classic;startArrow=classic;html=1;rounded=0;entryX=0;entryY=0.75;entryDx=0;entryDy=0;exitX=0;exitY=0.5;exitDx=0;exitDy=0;" edge="1" parent="1" source="E0bCsigT_9WANNuzd84R-27">
          <mxGeometry width="50" height="50" relative="1" as="geometry">
            <mxPoint x="239" y="307.75" as="sourcePoint" />
            <mxPoint x="240" y="62.25" as="targetPoint" />
            <Array as="points">
              <mxPoint x="160" y="265" />
              <mxPoint x="160" y="172.75" />
              <mxPoint x="160" y="62.75" />
            </Array>
          </mxGeometry>
        </mxCell>
        <mxCell id="E0bCsigT_9WANNuzd84R-31" value="" style="endArrow=classic;html=1;rounded=0;entryX=0;entryY=0.5;entryDx=0;entryDy=0;" edge="1" parent="1" target="E0bCsigT_9WANNuzd84R-23">
          <mxGeometry width="50" height="50" relative="1" as="geometry">
            <mxPoint x="160" y="213" as="sourcePoint" />
            <mxPoint x="220" y="206" as="targetPoint" />
          </mxGeometry>
        </mxCell>
        <mxCell id="E0bCsigT_9WANNuzd84R-32" value="" style="endArrow=classic;html=1;rounded=0;entryX=0;entryY=0.5;entryDx=0;entryDy=0;" edge="1" parent="1" target="E0bCsigT_9WANNuzd84R-21">
          <mxGeometry width="50" height="50" relative="1" as="geometry">
            <mxPoint x="160" y="166" as="sourcePoint" />
            <mxPoint x="220" y="160" as="targetPoint" />
          </mxGeometry>
        </mxCell>
        <mxCell id="E0bCsigT_9WANNuzd84R-33" value="" style="endArrow=classic;html=1;rounded=0;entryX=0;entryY=0.5;entryDx=0;entryDy=0;" edge="1" parent="1" target="E0bCsigT_9WANNuzd84R-19">
          <mxGeometry width="50" height="50" relative="1" as="geometry">
            <mxPoint x="160" y="115" as="sourcePoint" />
            <mxPoint x="165" y="118" as="targetPoint" />
          </mxGeometry>
        </mxCell>
        <mxCell id="E0bCsigT_9WANNuzd84R-34" value="" style="endArrow=classic;html=1;rounded=0;exitX=1;exitY=0.5;exitDx=0;exitDy=0;" edge="1" parent="1" source="E0bCsigT_9WANNuzd84R-15">
          <mxGeometry width="50" height="50" relative="1" as="geometry">
            <mxPoint x="80" y="273" as="sourcePoint" />
            <mxPoint x="160" y="180" as="targetPoint" />
          </mxGeometry>
        </mxCell>
        <mxCell id="E0bCsigT_9WANNuzd84R-39" value="" style="rounded=1;whiteSpace=wrap;html=1;" vertex="1" parent="1">
          <mxGeometry x="70" y="850" width="80" height="50" as="geometry" />
        </mxCell>
        <mxCell id="E0bCsigT_9WANNuzd84R-40" value="Elements of Proposal" style="text;html=1;strokeColor=none;fillColor=none;align=center;verticalAlign=middle;whiteSpace=wrap;rounded=0;" vertex="1" parent="1">
          <mxGeometry x="75" y="855" width="70" height="34" as="geometry" />
        </mxCell>
        <mxCell id="E0bCsigT_9WANNuzd84R-41" value="" style="rounded=1;whiteSpace=wrap;html=1;" vertex="1" parent="1">
          <mxGeometry x="270" y="499" width="110" height="40" as="geometry" />
        </mxCell>
        <mxCell id="E0bCsigT_9WANNuzd84R-42" value="Project Details" style="text;html=1;strokeColor=none;fillColor=none;align=center;verticalAlign=middle;whiteSpace=wrap;rounded=0;" vertex="1" parent="1">
          <mxGeometry x="275" y="504" width="100" height="30" as="geometry" />
        </mxCell>
        <mxCell id="E0bCsigT_9WANNuzd84R-53" value="" style="endArrow=classic;startArrow=classic;html=1;rounded=0;entryX=0;entryY=0.5;entryDx=0;entryDy=0;exitX=0;exitY=0.5;exitDx=0;exitDy=0;" edge="1" parent="1" source="E0bCsigT_9WANNuzd84R-65" target="E0bCsigT_9WANNuzd84R-41">
          <mxGeometry width="50" height="50" relative="1" as="geometry">
            <mxPoint x="269" y="1010" as="sourcePoint" />
            <mxPoint x="270" y="757.25" as="targetPoint" />
            <Array as="points">
              <mxPoint x="190" y="1272" />
              <mxPoint x="190" y="867.75" />
              <mxPoint x="190" y="519" />
            </Array>
          </mxGeometry>
        </mxCell>
        <mxCell id="E0bCsigT_9WANNuzd84R-58" value="" style="endArrow=classic;html=1;rounded=0;exitX=1;exitY=0.5;exitDx=0;exitDy=0;" edge="1" parent="1" source="E0bCsigT_9WANNuzd84R-39">
          <mxGeometry width="50" height="50" relative="1" as="geometry">
            <mxPoint x="110" y="968" as="sourcePoint" />
            <mxPoint x="190" y="875" as="targetPoint" />
          </mxGeometry>
        </mxCell>
        <mxCell id="E0bCsigT_9WANNuzd84R-61" value="" style="rounded=1;whiteSpace=wrap;html=1;" vertex="1" parent="1">
          <mxGeometry x="269" y="710" width="110" height="40" as="geometry" />
        </mxCell>
        <mxCell id="E0bCsigT_9WANNuzd84R-62" value="Business Case" style="text;html=1;strokeColor=none;fillColor=none;align=center;verticalAlign=middle;whiteSpace=wrap;rounded=0;" vertex="1" parent="1">
          <mxGeometry x="274" y="715" width="100" height="30" as="geometry" />
        </mxCell>
        <mxCell id="E0bCsigT_9WANNuzd84R-63" value="" style="rounded=1;whiteSpace=wrap;html=1;" vertex="1" parent="1">
          <mxGeometry x="269" y="1022" width="110" height="40" as="geometry" />
        </mxCell>
        <mxCell id="E0bCsigT_9WANNuzd84R-64" value="Benefits" style="text;html=1;strokeColor=none;fillColor=none;align=center;verticalAlign=middle;whiteSpace=wrap;rounded=0;" vertex="1" parent="1">
          <mxGeometry x="274" y="1027" width="100" height="30" as="geometry" />
        </mxCell>
        <mxCell id="E0bCsigT_9WANNuzd84R-65" value="" style="rounded=1;whiteSpace=wrap;html=1;" vertex="1" parent="1">
          <mxGeometry x="269" y="1252" width="110" height="40" as="geometry" />
        </mxCell>
        <mxCell id="E0bCsigT_9WANNuzd84R-66" value="Technology" style="text;html=1;strokeColor=none;fillColor=none;align=center;verticalAlign=middle;whiteSpace=wrap;rounded=0;" vertex="1" parent="1">
          <mxGeometry x="274" y="1258" width="100" height="30" as="geometry" />
        </mxCell>
        <mxCell id="E0bCsigT_9WANNuzd84R-67" value="" style="endArrow=classic;html=1;rounded=0;entryX=0;entryY=0.5;entryDx=0;entryDy=0;" edge="1" parent="1" target="E0bCsigT_9WANNuzd84R-61">
          <mxGeometry width="50" height="50" relative="1" as="geometry">
            <mxPoint x="190" y="730" as="sourcePoint" />
            <mxPoint x="230" y="862" as="targetPoint" />
          </mxGeometry>
        </mxCell>
        <mxCell id="E0bCsigT_9WANNuzd84R-68" value="" style="endArrow=classic;html=1;rounded=0;entryX=0;entryY=0.5;entryDx=0;entryDy=0;" edge="1" parent="1" target="E0bCsigT_9WANNuzd84R-63">
          <mxGeometry width="50" height="50" relative="1" as="geometry">
            <mxPoint x="190" y="1042" as="sourcePoint" />
            <mxPoint x="230" y="940" as="targetPoint" />
          </mxGeometry>
        </mxCell>
        <mxCell id="E0bCsigT_9WANNuzd84R-69" value="" style="rounded=1;whiteSpace=wrap;html=1;" vertex="1" parent="1">
          <mxGeometry x="484" y="460" width="110" height="40" as="geometry" />
        </mxCell>
        <mxCell id="E0bCsigT_9WANNuzd84R-70" value="Project Title" style="text;html=1;strokeColor=none;fillColor=none;align=center;verticalAlign=middle;whiteSpace=wrap;rounded=0;" vertex="1" parent="1">
          <mxGeometry x="489" y="465" width="100" height="30" as="geometry" />
        </mxCell>
        <mxCell id="E0bCsigT_9WANNuzd84R-71" value="" style="rounded=1;whiteSpace=wrap;html=1;" vertex="1" parent="1">
          <mxGeometry x="485" y="539" width="110" height="40" as="geometry" />
        </mxCell>
        <mxCell id="E0bCsigT_9WANNuzd84R-72" value="Executive Summary" style="text;html=1;strokeColor=none;fillColor=none;align=center;verticalAlign=middle;whiteSpace=wrap;rounded=0;" vertex="1" parent="1">
          <mxGeometry x="490" y="544" width="100" height="30" as="geometry" />
        </mxCell>
        <mxCell id="E0bCsigT_9WANNuzd84R-73" value="" style="endArrow=classic;startArrow=classic;html=1;rounded=0;entryX=0;entryY=0.5;entryDx=0;entryDy=0;exitX=0;exitY=0.5;exitDx=0;exitDy=0;" edge="1" parent="1" source="E0bCsigT_9WANNuzd84R-71" target="E0bCsigT_9WANNuzd84R-69">
          <mxGeometry width="50" height="50" relative="1" as="geometry">
            <mxPoint x="472" y="559" as="sourcePoint" />
            <mxPoint x="471" y="480" as="targetPoint" />
            <Array as="points">
              <mxPoint x="432" y="559" />
              <mxPoint x="432" y="519" />
              <mxPoint x="432" y="479" />
            </Array>
          </mxGeometry>
        </mxCell>
        <mxCell id="E0bCsigT_9WANNuzd84R-74" value="" style="endArrow=classic;html=1;rounded=0;exitX=1;exitY=0.5;exitDx=0;exitDy=0;" edge="1" parent="1" source="E0bCsigT_9WANNuzd84R-41">
          <mxGeometry width="50" height="50" relative="1" as="geometry">
            <mxPoint x="409" y="520" as="sourcePoint" />
            <mxPoint x="430" y="519" as="targetPoint" />
          </mxGeometry>
        </mxCell>
        <mxCell id="VUYkN5b3JOp_Hl65jLfd-1" value="" style="rounded=1;whiteSpace=wrap;html=1;" vertex="1" parent="1">
          <mxGeometry x="485" y="599" width="110" height="40" as="geometry" />
        </mxCell>
        <mxCell id="VUYkN5b3JOp_Hl65jLfd-2" value="Business Need" style="text;html=1;strokeColor=none;fillColor=none;align=center;verticalAlign=middle;whiteSpace=wrap;rounded=0;" vertex="1" parent="1">
          <mxGeometry x="490" y="604" width="100" height="30" as="geometry" />
        </mxCell>
        <mxCell id="VUYkN5b3JOp_Hl65jLfd-3" value="" style="rounded=1;whiteSpace=wrap;html=1;" vertex="1" parent="1">
          <mxGeometry x="485" y="665" width="110" height="40" as="geometry" />
        </mxCell>
        <mxCell id="VUYkN5b3JOp_Hl65jLfd-4" value="Motivation" style="text;html=1;strokeColor=none;fillColor=none;align=center;verticalAlign=middle;whiteSpace=wrap;rounded=0;" vertex="1" parent="1">
          <mxGeometry x="499" y="675" width="80" height="20" as="geometry" />
        </mxCell>
        <mxCell id="VUYkN5b3JOp_Hl65jLfd-5" value="" style="rounded=1;whiteSpace=wrap;html=1;" vertex="1" parent="1">
          <mxGeometry x="485" y="733" width="110" height="40" as="geometry" />
        </mxCell>
        <mxCell id="VUYkN5b3JOp_Hl65jLfd-6" value="Discription" style="text;html=1;strokeColor=none;fillColor=none;align=center;verticalAlign=middle;whiteSpace=wrap;rounded=0;" vertex="1" parent="1">
          <mxGeometry x="504.5" y="743.5" width="69" height="21" as="geometry" />
        </mxCell>
        <mxCell id="VUYkN5b3JOp_Hl65jLfd-7" value="" style="rounded=1;whiteSpace=wrap;html=1;" vertex="1" parent="1">
          <mxGeometry x="485" y="796" width="110" height="40" as="geometry" />
        </mxCell>
        <mxCell id="VUYkN5b3JOp_Hl65jLfd-8" value="Level Of Impact" style="text;html=1;strokeColor=none;fillColor=none;align=center;verticalAlign=middle;whiteSpace=wrap;rounded=0;" vertex="1" parent="1">
          <mxGeometry x="496" y="802.75" width="90" height="26.5" as="geometry" />
        </mxCell>
        <mxCell id="VUYkN5b3JOp_Hl65jLfd-11" value="" style="rounded=1;whiteSpace=wrap;html=1;" vertex="1" parent="1">
          <mxGeometry x="484" y="862" width="110" height="40" as="geometry" />
        </mxCell>
        <mxCell id="VUYkN5b3JOp_Hl65jLfd-12" value="Functional Requirements" style="text;html=1;strokeColor=none;fillColor=none;align=center;verticalAlign=middle;whiteSpace=wrap;rounded=0;" vertex="1" parent="1">
          <mxGeometry x="500" y="870" width="80" height="30" as="geometry" />
        </mxCell>
        <mxCell id="VUYkN5b3JOp_Hl65jLfd-13" value="" style="endArrow=classic;startArrow=classic;html=1;rounded=0;entryX=0;entryY=0.5;entryDx=0;entryDy=0;exitX=0;exitY=0.5;exitDx=0;exitDy=0;" edge="1" parent="1" source="VUYkN5b3JOp_Hl65jLfd-11" target="VUYkN5b3JOp_Hl65jLfd-1">
          <mxGeometry width="50" height="50" relative="1" as="geometry">
            <mxPoint x="418" y="789" as="sourcePoint" />
            <mxPoint x="468" y="739" as="targetPoint" />
            <Array as="points">
              <mxPoint x="431" y="882" />
              <mxPoint x="431" y="729" />
              <mxPoint x="431" y="619" />
            </Array>
          </mxGeometry>
        </mxCell>
        <mxCell id="VUYkN5b3JOp_Hl65jLfd-14" value="" style="endArrow=classic;html=1;rounded=0;entryX=0;entryY=0.5;entryDx=0;entryDy=0;" edge="1" parent="1">
          <mxGeometry width="50" height="50" relative="1" as="geometry">
            <mxPoint x="430" y="684" as="sourcePoint" />
            <mxPoint x="485" y="684" as="targetPoint" />
          </mxGeometry>
        </mxCell>
        <mxCell id="VUYkN5b3JOp_Hl65jLfd-15" value="" style="endArrow=classic;html=1;rounded=0;entryX=0;entryY=0.5;entryDx=0;entryDy=0;" edge="1" parent="1">
          <mxGeometry width="50" height="50" relative="1" as="geometry">
            <mxPoint x="431" y="752" as="sourcePoint" />
            <mxPoint x="486" y="751" as="targetPoint" />
          </mxGeometry>
        </mxCell>
        <mxCell id="VUYkN5b3JOp_Hl65jLfd-16" value="" style="endArrow=classic;html=1;rounded=0;entryX=0;entryY=0.5;entryDx=0;entryDy=0;" edge="1" parent="1" target="VUYkN5b3JOp_Hl65jLfd-7">
          <mxGeometry width="50" height="50" relative="1" as="geometry">
            <mxPoint x="431" y="816" as="sourcePoint" />
            <mxPoint x="486" y="813" as="targetPoint" />
          </mxGeometry>
        </mxCell>
        <mxCell id="VUYkN5b3JOp_Hl65jLfd-18" value="" style="endArrow=classic;html=1;rounded=0;" edge="1" parent="1">
          <mxGeometry width="50" height="50" relative="1" as="geometry">
            <mxPoint x="380" y="730" as="sourcePoint" />
            <mxPoint x="430" y="730" as="targetPoint" />
          </mxGeometry>
        </mxCell>
        <mxCell id="VUYkN5b3JOp_Hl65jLfd-19" value="" style="rounded=1;whiteSpace=wrap;html=1;" vertex="1" parent="1">
          <mxGeometry x="483.5" y="924" width="110" height="40" as="geometry" />
        </mxCell>
        <mxCell id="VUYkN5b3JOp_Hl65jLfd-20" value="Social" style="text;html=1;strokeColor=none;fillColor=none;align=center;verticalAlign=middle;whiteSpace=wrap;rounded=0;" vertex="1" parent="1">
          <mxGeometry x="504.75" y="933" width="68.5" height="22" as="geometry" />
        </mxCell>
        <mxCell id="VUYkN5b3JOp_Hl65jLfd-21" value="" style="rounded=1;whiteSpace=wrap;html=1;" vertex="1" parent="1">
          <mxGeometry x="483.5" y="980" width="110" height="40" as="geometry" />
        </mxCell>
        <mxCell id="VUYkN5b3JOp_Hl65jLfd-22" value="Academic" style="text;html=1;strokeColor=none;fillColor=none;align=center;verticalAlign=middle;whiteSpace=wrap;rounded=0;" vertex="1" parent="1">
          <mxGeometry x="497.5" y="990" width="80" height="20" as="geometry" />
        </mxCell>
        <mxCell id="VUYkN5b3JOp_Hl65jLfd-23" value="" style="rounded=1;whiteSpace=wrap;html=1;" vertex="1" parent="1">
          <mxGeometry x="483.5" y="1034" width="110" height="40" as="geometry" />
        </mxCell>
        <mxCell id="VUYkN5b3JOp_Hl65jLfd-24" value="Economical" style="text;html=1;strokeColor=none;fillColor=none;align=center;verticalAlign=middle;whiteSpace=wrap;rounded=0;" vertex="1" parent="1">
          <mxGeometry x="503" y="1044.5" width="69" height="21" as="geometry" />
        </mxCell>
        <mxCell id="VUYkN5b3JOp_Hl65jLfd-25" value="" style="rounded=1;whiteSpace=wrap;html=1;" vertex="1" parent="1">
          <mxGeometry x="483.5" y="1087" width="110" height="40" as="geometry" />
        </mxCell>
        <mxCell id="VUYkN5b3JOp_Hl65jLfd-26" value="Time Saving" style="text;html=1;strokeColor=none;fillColor=none;align=center;verticalAlign=middle;whiteSpace=wrap;rounded=0;" vertex="1" parent="1">
          <mxGeometry x="502.5" y="1098.5" width="70" height="17" as="geometry" />
        </mxCell>
        <mxCell id="VUYkN5b3JOp_Hl65jLfd-29" value="" style="rounded=1;whiteSpace=wrap;html=1;" vertex="1" parent="1">
          <mxGeometry x="482.5" y="1142" width="110" height="40" as="geometry" />
        </mxCell>
        <mxCell id="VUYkN5b3JOp_Hl65jLfd-30" value="Industrial Benefits" style="text;html=1;strokeColor=none;fillColor=none;align=center;verticalAlign=middle;whiteSpace=wrap;rounded=0;" vertex="1" parent="1">
          <mxGeometry x="508.5" y="1149.5" width="60" height="25" as="geometry" />
        </mxCell>
        <mxCell id="VUYkN5b3JOp_Hl65jLfd-31" value="" style="endArrow=classic;startArrow=classic;html=1;rounded=0;entryX=0;entryY=0.5;entryDx=0;entryDy=0;exitX=0;exitY=0.5;exitDx=0;exitDy=0;" edge="1" parent="1" source="VUYkN5b3JOp_Hl65jLfd-29" target="VUYkN5b3JOp_Hl65jLfd-19">
          <mxGeometry width="50" height="50" relative="1" as="geometry">
            <mxPoint x="416.5" y="1114" as="sourcePoint" />
            <mxPoint x="466.5" y="1064" as="targetPoint" />
            <Array as="points">
              <mxPoint x="430" y="1162" />
              <mxPoint x="429.5" y="1054" />
              <mxPoint x="429.5" y="944" />
            </Array>
          </mxGeometry>
        </mxCell>
        <mxCell id="VUYkN5b3JOp_Hl65jLfd-32" value="" style="endArrow=classic;html=1;rounded=0;entryX=0;entryY=0.5;entryDx=0;entryDy=0;" edge="1" parent="1">
          <mxGeometry width="50" height="50" relative="1" as="geometry">
            <mxPoint x="428.5" y="1000" as="sourcePoint" />
            <mxPoint x="483.5" y="1000" as="targetPoint" />
          </mxGeometry>
        </mxCell>
        <mxCell id="VUYkN5b3JOp_Hl65jLfd-33" value="" style="endArrow=classic;html=1;rounded=0;entryX=0;entryY=0.5;entryDx=0;entryDy=0;" edge="1" parent="1">
          <mxGeometry width="50" height="50" relative="1" as="geometry">
            <mxPoint x="429.5" y="1055" as="sourcePoint" />
            <mxPoint x="484.5" y="1054" as="targetPoint" />
          </mxGeometry>
        </mxCell>
        <mxCell id="VUYkN5b3JOp_Hl65jLfd-34" value="" style="endArrow=classic;html=1;rounded=0;entryX=0;entryY=0.5;entryDx=0;entryDy=0;" edge="1" parent="1">
          <mxGeometry width="50" height="50" relative="1" as="geometry">
            <mxPoint x="429.5" y="1107" as="sourcePoint" />
            <mxPoint x="484.5" y="1107" as="targetPoint" />
          </mxGeometry>
        </mxCell>
        <mxCell id="VUYkN5b3JOp_Hl65jLfd-36" value="" style="endArrow=classic;html=1;rounded=0;exitX=1;exitY=0.5;exitDx=0;exitDy=0;" edge="1" parent="1" source="E0bCsigT_9WANNuzd84R-63">
          <mxGeometry width="50" height="50" relative="1" as="geometry">
            <mxPoint x="354" y="1106" as="sourcePoint" />
            <mxPoint x="430" y="1042" as="targetPoint" />
          </mxGeometry>
        </mxCell>
        <mxCell id="VUYkN5b3JOp_Hl65jLfd-37" value="" style="rounded=1;whiteSpace=wrap;html=1;" vertex="1" parent="1">
          <mxGeometry x="481" y="1212" width="110" height="40" as="geometry" />
        </mxCell>
        <mxCell id="VUYkN5b3JOp_Hl65jLfd-38" value="Programming Language" style="text;html=1;strokeColor=none;fillColor=none;align=center;verticalAlign=middle;whiteSpace=wrap;rounded=0;" vertex="1" parent="1">
          <mxGeometry x="486" y="1217" width="100" height="30" as="geometry" />
        </mxCell>
        <mxCell id="VUYkN5b3JOp_Hl65jLfd-39" value="" style="rounded=1;whiteSpace=wrap;html=1;" vertex="1" parent="1">
          <mxGeometry x="482" y="1291" width="110" height="40" as="geometry" />
        </mxCell>
        <mxCell id="VUYkN5b3JOp_Hl65jLfd-40" value="Platform" style="text;html=1;strokeColor=none;fillColor=none;align=center;verticalAlign=middle;whiteSpace=wrap;rounded=0;" vertex="1" parent="1">
          <mxGeometry x="487" y="1296" width="100" height="30" as="geometry" />
        </mxCell>
        <mxCell id="VUYkN5b3JOp_Hl65jLfd-41" value="" style="endArrow=classic;startArrow=classic;html=1;rounded=0;entryX=0;entryY=0.5;entryDx=0;entryDy=0;exitX=0;exitY=0.5;exitDx=0;exitDy=0;" edge="1" parent="1" source="VUYkN5b3JOp_Hl65jLfd-39" target="VUYkN5b3JOp_Hl65jLfd-37">
          <mxGeometry width="50" height="50" relative="1" as="geometry">
            <mxPoint x="469" y="1311" as="sourcePoint" />
            <mxPoint x="468" y="1232" as="targetPoint" />
            <Array as="points">
              <mxPoint x="429" y="1311" />
              <mxPoint x="429" y="1271" />
              <mxPoint x="429" y="1231" />
            </Array>
          </mxGeometry>
        </mxCell>
        <mxCell id="VUYkN5b3JOp_Hl65jLfd-42" value="" style="endArrow=classic;html=1;rounded=0;exitX=1;exitY=0.5;exitDx=0;exitDy=0;" edge="1" parent="1">
          <mxGeometry width="50" height="50" relative="1" as="geometry">
            <mxPoint x="378" y="1271" as="sourcePoint" />
            <mxPoint x="428" y="1271" as="targetPoint" />
          </mxGeometry>
        </mxCell>
        <mxCell id="DyP4kkjWQM74mQi6R0ZF-1" value="Executive Summary" style="swimlane;fontStyle=0;childLayout=stackLayout;horizontal=1;startSize=30;horizontalStack=0;resizeParent=1;resizeParentMax=0;resizeLast=0;collapsible=1;marginBottom=0;whiteSpace=wrap;html=1;" vertex="1" parent="1">
          <mxGeometry x="660" y="460" width="140" height="210" as="geometry" />
        </mxCell>
        <mxCell id="DyP4kkjWQM74mQi6R0ZF-2" value="&lt;font style=&quot;font-size: 14px;&quot;&gt;Brief Introduction of project&lt;/font&gt;" style="text;strokeColor=none;fillColor=none;align=left;verticalAlign=middle;spacingLeft=4;spacingRight=4;overflow=hidden;points=[[0,0.5],[1,0.5]];portConstraint=eastwest;rotatable=0;whiteSpace=wrap;html=1;" vertex="1" parent="DyP4kkjWQM74mQi6R0ZF-1">
          <mxGeometry y="30" width="140" height="40" as="geometry" />
        </mxCell>
        <mxCell id="DyP4kkjWQM74mQi6R0ZF-3" value="&lt;font style=&quot;font-size: 14px;&quot;&gt;Existing Projects&amp;nbsp;&lt;/font&gt;" style="text;strokeColor=none;fillColor=none;align=left;verticalAlign=middle;spacingLeft=4;spacingRight=4;overflow=hidden;points=[[0,0.5],[1,0.5]];portConstraint=eastwest;rotatable=0;whiteSpace=wrap;html=1;" vertex="1" parent="DyP4kkjWQM74mQi6R0ZF-1">
          <mxGeometry y="70" width="140" height="30" as="geometry" />
        </mxCell>
        <mxCell id="DyP4kkjWQM74mQi6R0ZF-4" value="&lt;font style=&quot;font-size: 14px;&quot;&gt;Clearly Highlight problem statement.&amp;nbsp;&lt;/font&gt;" style="text;strokeColor=none;fillColor=none;align=left;verticalAlign=middle;spacingLeft=4;spacingRight=4;overflow=hidden;points=[[0,0.5],[1,0.5]];portConstraint=eastwest;rotatable=0;whiteSpace=wrap;html=1;" vertex="1" parent="DyP4kkjWQM74mQi6R0ZF-1">
          <mxGeometry y="100" width="140" height="40" as="geometry" />
        </mxCell>
        <mxCell id="DyP4kkjWQM74mQi6R0ZF-5" value="&lt;font style=&quot;font-size: 14px;&quot;&gt;Methodology you adopt.&lt;/font&gt;" style="text;strokeColor=none;fillColor=none;align=left;verticalAlign=middle;spacingLeft=4;spacingRight=4;overflow=hidden;points=[[0,0.5],[1,0.5]];portConstraint=eastwest;rotatable=0;whiteSpace=wrap;html=1;" vertex="1" parent="DyP4kkjWQM74mQi6R0ZF-1">
          <mxGeometry y="140" width="140" height="40" as="geometry" />
        </mxCell>
        <mxCell id="DyP4kkjWQM74mQi6R0ZF-6" value="&lt;font style=&quot;font-size: 14px;&quot;&gt;Technology Used&amp;nbsp;&lt;/font&gt;" style="text;strokeColor=none;fillColor=none;align=left;verticalAlign=middle;spacingLeft=4;spacingRight=4;overflow=hidden;points=[[0,0.5],[1,0.5]];portConstraint=eastwest;rotatable=0;whiteSpace=wrap;html=1;" vertex="1" parent="DyP4kkjWQM74mQi6R0ZF-1">
          <mxGeometry y="180" width="140" height="30" as="geometry" />
        </mxCell>
        <mxCell id="-Ow5fVOWoCDoGEWBEcYQ-6" value="Business Case" style="swimlane;fontStyle=0;childLayout=stackLayout;horizontal=1;startSize=30;horizontalStack=0;resizeParent=1;resizeParentMax=0;resizeLast=0;collapsible=1;marginBottom=0;whiteSpace=wrap;html=1;" vertex="1" parent="1">
          <mxGeometry x="660" y="693" width="240" height="270" as="geometry" />
        </mxCell>
        <mxCell id="-Ow5fVOWoCDoGEWBEcYQ-7" value="&lt;b&gt;Business Need of Project: &lt;/b&gt;This section contain a clear articulation of the business need in the form of a statement that addresses the problem.&amp;nbsp;" style="text;strokeColor=none;fillColor=none;align=left;verticalAlign=middle;spacingLeft=4;spacingRight=4;overflow=hidden;points=[[0,0.5],[1,0.5]];portConstraint=eastwest;rotatable=0;whiteSpace=wrap;html=1;" vertex="1" parent="-Ow5fVOWoCDoGEWBEcYQ-6">
          <mxGeometry y="30" width="240" height="70" as="geometry" />
        </mxCell>
        <mxCell id="-Ow5fVOWoCDoGEWBEcYQ-8" value="&lt;b&gt;Motivation for Project: &lt;/b&gt;This section contain a clear statement of motivation which drives you to this project." style="text;strokeColor=none;fillColor=none;align=left;verticalAlign=middle;spacingLeft=4;spacingRight=4;overflow=hidden;points=[[0,0.5],[1,0.5]];portConstraint=eastwest;rotatable=0;whiteSpace=wrap;html=1;" vertex="1" parent="-Ow5fVOWoCDoGEWBEcYQ-6">
          <mxGeometry y="100" width="240" height="50" as="geometry" />
        </mxCell>
        <mxCell id="-Ow5fVOWoCDoGEWBEcYQ-9" value="&lt;b&gt;Description of the Project Objective:&lt;/b&gt; Identify the Key objectives of the project." style="text;strokeColor=none;fillColor=none;align=left;verticalAlign=middle;spacingLeft=4;spacingRight=4;overflow=hidden;points=[[0,0.5],[1,0.5]];portConstraint=eastwest;rotatable=0;whiteSpace=wrap;html=1;" vertex="1" parent="-Ow5fVOWoCDoGEWBEcYQ-6">
          <mxGeometry y="150" width="240" height="30" as="geometry" />
        </mxCell>
        <mxCell id="-Ow5fVOWoCDoGEWBEcYQ-10" value="&lt;b&gt;Level of Impact Expected: &lt;/b&gt;State whether the implementation would have an impact." style="text;strokeColor=none;fillColor=none;align=left;verticalAlign=middle;spacingLeft=4;spacingRight=4;overflow=hidden;points=[[0,0.5],[1,0.5]];portConstraint=eastwest;rotatable=0;whiteSpace=wrap;html=1;" vertex="1" parent="-Ow5fVOWoCDoGEWBEcYQ-6">
          <mxGeometry y="180" width="240" height="50" as="geometry" />
        </mxCell>
        <mxCell id="-Ow5fVOWoCDoGEWBEcYQ-11" value="&lt;b&gt;Functional Requirements: &lt;/b&gt;State the list of features that you are going to offer." style="text;strokeColor=none;fillColor=none;align=left;verticalAlign=middle;spacingLeft=4;spacingRight=4;overflow=hidden;points=[[0,0.5],[1,0.5]];portConstraint=eastwest;rotatable=0;whiteSpace=wrap;html=1;" vertex="1" parent="-Ow5fVOWoCDoGEWBEcYQ-6">
          <mxGeometry y="230" width="240" height="40" as="geometry" />
        </mxCell>
        <mxCell id="-Ow5fVOWoCDoGEWBEcYQ-12" value="Technology" style="swimlane;fontStyle=0;childLayout=stackLayout;horizontal=1;startSize=30;horizontalStack=0;resizeParent=1;resizeParentMax=0;resizeLast=0;collapsible=1;marginBottom=0;whiteSpace=wrap;html=1;" vertex="1" parent="1">
          <mxGeometry x="680" y="1174.5" width="200" height="140" as="geometry" />
        </mxCell>
        <mxCell id="-Ow5fVOWoCDoGEWBEcYQ-13" value="&lt;b&gt;Programming Language: &lt;/b&gt;Which programming language you are going to use and state reason why this is best suited for project" style="text;strokeColor=none;fillColor=none;align=left;verticalAlign=middle;spacingLeft=4;spacingRight=4;overflow=hidden;points=[[0,0.5],[1,0.5]];portConstraint=eastwest;rotatable=0;whiteSpace=wrap;html=1;" vertex="1" parent="-Ow5fVOWoCDoGEWBEcYQ-12">
          <mxGeometry y="30" width="200" height="80" as="geometry" />
        </mxCell>
        <mxCell id="-Ow5fVOWoCDoGEWBEcYQ-14" value="&lt;b&gt;Platform: &lt;/b&gt;Desktop/Web/Mobile" style="text;strokeColor=none;fillColor=none;align=left;verticalAlign=middle;spacingLeft=4;spacingRight=4;overflow=hidden;points=[[0,0.5],[1,0.5]];portConstraint=eastwest;rotatable=0;whiteSpace=wrap;html=1;" vertex="1" parent="-Ow5fVOWoCDoGEWBEcYQ-12">
          <mxGeometry y="110" width="200" height="30" as="geometry" />
        </mxCell>
        <mxCell id="To-OXU-4lQRGdfj8dpl--1" value="" style="rounded=1;whiteSpace=wrap;html=1;" vertex="1" parent="1">
          <mxGeometry x="25" y="1931" width="150" height="46" as="geometry" />
        </mxCell>
        <mxCell id="To-OXU-4lQRGdfj8dpl--2" value="SDLC(Software Development Life Cycle)" style="text;html=1;strokeColor=none;fillColor=none;align=center;verticalAlign=middle;whiteSpace=wrap;rounded=0;" vertex="1" parent="1">
          <mxGeometry x="25.5" y="1934.5" width="145" height="35" as="geometry" />
        </mxCell>
        <mxCell id="To-OXU-4lQRGdfj8dpl--9" value="" style="rounded=1;whiteSpace=wrap;html=1;" vertex="1" parent="1">
          <mxGeometry x="262" y="1469" width="110" height="40" as="geometry" />
        </mxCell>
        <mxCell id="To-OXU-4lQRGdfj8dpl--10" value="Requirement&lt;br&gt;Gathering" style="text;html=1;strokeColor=none;fillColor=none;align=center;verticalAlign=middle;whiteSpace=wrap;rounded=0;" vertex="1" parent="1">
          <mxGeometry x="277" y="1471.25" width="80" height="35.5" as="geometry" />
        </mxCell>
        <mxCell id="To-OXU-4lQRGdfj8dpl--11" value="" style="rounded=1;whiteSpace=wrap;html=1;" vertex="1" parent="1">
          <mxGeometry x="262" y="1701" width="110" height="40" as="geometry" />
        </mxCell>
        <mxCell id="To-OXU-4lQRGdfj8dpl--12" value="Analasis Phase" style="text;html=1;strokeColor=none;fillColor=none;align=center;verticalAlign=middle;whiteSpace=wrap;rounded=0;" vertex="1" parent="1">
          <mxGeometry x="277" y="1705" width="80" height="32" as="geometry" />
        </mxCell>
        <mxCell id="To-OXU-4lQRGdfj8dpl--13" value="" style="rounded=1;whiteSpace=wrap;html=1;" vertex="1" parent="1">
          <mxGeometry x="262" y="1958.5" width="110" height="40" as="geometry" />
        </mxCell>
        <mxCell id="To-OXU-4lQRGdfj8dpl--14" value="Design Phase" style="text;html=1;strokeColor=none;fillColor=none;align=center;verticalAlign=middle;whiteSpace=wrap;rounded=0;" vertex="1" parent="1">
          <mxGeometry x="277" y="1969" width="80" height="18" as="geometry" />
        </mxCell>
        <mxCell id="To-OXU-4lQRGdfj8dpl--15" value="" style="rounded=1;whiteSpace=wrap;html=1;" vertex="1" parent="1">
          <mxGeometry x="263" y="2155" width="110" height="40" as="geometry" />
        </mxCell>
        <mxCell id="To-OXU-4lQRGdfj8dpl--16" value="Coding Phase" style="text;html=1;strokeColor=none;fillColor=none;align=center;verticalAlign=middle;whiteSpace=wrap;rounded=0;" vertex="1" parent="1">
          <mxGeometry x="277" y="2166" width="80" height="18" as="geometry" />
        </mxCell>
        <mxCell id="To-OXU-4lQRGdfj8dpl--17" value="" style="rounded=1;whiteSpace=wrap;html=1;" vertex="1" parent="1">
          <mxGeometry x="262" y="2248" width="110" height="40" as="geometry" />
        </mxCell>
        <mxCell id="To-OXU-4lQRGdfj8dpl--18" value="Testing Phase" style="text;html=1;strokeColor=none;fillColor=none;align=center;verticalAlign=middle;whiteSpace=wrap;rounded=0;" vertex="1" parent="1">
          <mxGeometry x="277" y="2259" width="80" height="18" as="geometry" />
        </mxCell>
        <mxCell id="To-OXU-4lQRGdfj8dpl--19" value="" style="rounded=1;whiteSpace=wrap;html=1;" vertex="1" parent="1">
          <mxGeometry x="262" y="2363" width="110" height="40" as="geometry" />
        </mxCell>
        <mxCell id="To-OXU-4lQRGdfj8dpl--20" value="Deployment Phase" style="text;html=1;strokeColor=none;fillColor=none;align=center;verticalAlign=middle;whiteSpace=wrap;rounded=0;" vertex="1" parent="1">
          <mxGeometry x="277" y="2366.5" width="80" height="33" as="geometry" />
        </mxCell>
        <mxCell id="To-OXU-4lQRGdfj8dpl--21" value="" style="rounded=1;whiteSpace=wrap;html=1;" vertex="1" parent="1">
          <mxGeometry x="259" y="2427" width="110" height="40" as="geometry" />
        </mxCell>
        <mxCell id="To-OXU-4lQRGdfj8dpl--22" value="Maintenance Phase" style="text;html=1;strokeColor=none;fillColor=none;align=center;verticalAlign=middle;whiteSpace=wrap;rounded=0;" vertex="1" parent="1">
          <mxGeometry x="274" y="2432.5" width="80" height="29" as="geometry" />
        </mxCell>
        <mxCell id="To-OXU-4lQRGdfj8dpl--23" value="" style="endArrow=classic;startArrow=classic;html=1;rounded=0;entryX=0;entryY=0.5;entryDx=0;entryDy=0;exitX=0;exitY=0.5;exitDx=0;exitDy=0;" edge="1" parent="1" source="To-OXU-4lQRGdfj8dpl--21" target="To-OXU-4lQRGdfj8dpl--9">
          <mxGeometry width="50" height="50" relative="1" as="geometry">
            <mxPoint x="260" y="2269" as="sourcePoint" />
            <mxPoint x="263" y="1790" as="targetPoint" />
            <Array as="points">
              <mxPoint x="200" y="2447" />
              <mxPoint x="201" y="2035" />
              <mxPoint x="200" y="1490" />
            </Array>
          </mxGeometry>
        </mxCell>
        <mxCell id="5cEx7nMWgyiyxGNApo5d-2" value="" style="rounded=1;whiteSpace=wrap;html=1;" vertex="1" parent="1">
          <mxGeometry x="485" y="1614.75" width="110" height="40" as="geometry" />
        </mxCell>
        <mxCell id="5cEx7nMWgyiyxGNApo5d-3" value="Resource Allocation" style="text;html=1;strokeColor=none;fillColor=none;align=center;verticalAlign=middle;whiteSpace=wrap;rounded=0;" vertex="1" parent="1">
          <mxGeometry x="500" y="1618.75" width="80" height="32" as="geometry" />
        </mxCell>
        <mxCell id="5cEx7nMWgyiyxGNApo5d-4" value="" style="rounded=1;whiteSpace=wrap;html=1;" vertex="1" parent="1">
          <mxGeometry x="483" y="1667" width="110" height="40" as="geometry" />
        </mxCell>
        <mxCell id="5cEx7nMWgyiyxGNApo5d-5" value="Capacity Planning" style="text;html=1;strokeColor=none;fillColor=none;align=center;verticalAlign=middle;whiteSpace=wrap;rounded=0;" vertex="1" parent="1">
          <mxGeometry x="498" y="1671" width="80" height="32" as="geometry" />
        </mxCell>
        <mxCell id="5cEx7nMWgyiyxGNApo5d-6" value="" style="rounded=1;whiteSpace=wrap;html=1;" vertex="1" parent="1">
          <mxGeometry x="483" y="1718" width="110" height="40" as="geometry" />
        </mxCell>
        <mxCell id="5cEx7nMWgyiyxGNApo5d-7" value="Project Scheduling" style="text;html=1;strokeColor=none;fillColor=none;align=center;verticalAlign=middle;whiteSpace=wrap;rounded=0;" vertex="1" parent="1">
          <mxGeometry x="498" y="1722" width="80" height="32" as="geometry" />
        </mxCell>
        <mxCell id="5cEx7nMWgyiyxGNApo5d-8" value="" style="rounded=1;whiteSpace=wrap;html=1;" vertex="1" parent="1">
          <mxGeometry x="483" y="1774" width="110" height="40" as="geometry" />
        </mxCell>
        <mxCell id="5cEx7nMWgyiyxGNApo5d-9" value="Cost Estimation" style="text;html=1;strokeColor=none;fillColor=none;align=center;verticalAlign=middle;whiteSpace=wrap;rounded=0;" vertex="1" parent="1">
          <mxGeometry x="498" y="1778" width="80" height="32" as="geometry" />
        </mxCell>
        <mxCell id="5cEx7nMWgyiyxGNApo5d-10" value="" style="endArrow=classic;startArrow=classic;html=1;rounded=0;entryX=0;entryY=0.5;entryDx=0;entryDy=0;exitX=0;exitY=0.5;exitDx=0;exitDy=0;" edge="1" parent="1">
          <mxGeometry width="50" height="50" relative="1" as="geometry">
            <mxPoint x="486" y="1794" as="sourcePoint" />
            <mxPoint x="486" y="1634.75" as="targetPoint" />
            <Array as="points">
              <mxPoint x="439" y="1794" />
              <mxPoint x="439" y="1709" />
              <mxPoint x="439" y="1635" />
            </Array>
          </mxGeometry>
        </mxCell>
        <mxCell id="5cEx7nMWgyiyxGNApo5d-11" value="" style="rounded=1;whiteSpace=wrap;html=1;" vertex="1" parent="1">
          <mxGeometry x="483.5" y="1832" width="110" height="40" as="geometry" />
        </mxCell>
        <mxCell id="5cEx7nMWgyiyxGNApo5d-12" value="Class Diagram" style="text;html=1;strokeColor=none;fillColor=none;align=center;verticalAlign=middle;whiteSpace=wrap;rounded=0;" vertex="1" parent="1">
          <mxGeometry x="498.5" y="1836" width="80" height="32" as="geometry" />
        </mxCell>
        <mxCell id="5cEx7nMWgyiyxGNApo5d-13" value="" style="rounded=1;whiteSpace=wrap;html=1;" vertex="1" parent="1">
          <mxGeometry x="483.5" y="1884.25" width="110" height="40" as="geometry" />
        </mxCell>
        <mxCell id="5cEx7nMWgyiyxGNApo5d-14" value="ERD Diagram" style="text;html=1;strokeColor=none;fillColor=none;align=center;verticalAlign=middle;whiteSpace=wrap;rounded=0;" vertex="1" parent="1">
          <mxGeometry x="498.5" y="1888.25" width="80" height="32" as="geometry" />
        </mxCell>
        <mxCell id="5cEx7nMWgyiyxGNApo5d-15" value="" style="rounded=1;whiteSpace=wrap;html=1;" vertex="1" parent="1">
          <mxGeometry x="483.5" y="1935.25" width="110" height="40" as="geometry" />
        </mxCell>
        <mxCell id="5cEx7nMWgyiyxGNApo5d-16" value="Database Diagram" style="text;html=1;strokeColor=none;fillColor=none;align=center;verticalAlign=middle;whiteSpace=wrap;rounded=0;" vertex="1" parent="1">
          <mxGeometry x="498.5" y="1939.25" width="80" height="32" as="geometry" />
        </mxCell>
        <mxCell id="5cEx7nMWgyiyxGNApo5d-17" value="" style="rounded=1;whiteSpace=wrap;html=1;" vertex="1" parent="1">
          <mxGeometry x="483.5" y="1991.25" width="110" height="40" as="geometry" />
        </mxCell>
        <mxCell id="5cEx7nMWgyiyxGNApo5d-18" value="Dataflow Diagram" style="text;html=1;strokeColor=none;fillColor=none;align=center;verticalAlign=middle;whiteSpace=wrap;rounded=0;" vertex="1" parent="1">
          <mxGeometry x="498.5" y="1995.25" width="80" height="32" as="geometry" />
        </mxCell>
        <mxCell id="5cEx7nMWgyiyxGNApo5d-19" value="" style="endArrow=classic;startArrow=classic;html=1;rounded=0;entryX=0;entryY=0.5;entryDx=0;entryDy=0;exitX=0;exitY=0.5;exitDx=0;exitDy=0;" edge="1" parent="1">
          <mxGeometry width="50" height="50" relative="1" as="geometry">
            <mxPoint x="488" y="2112" as="sourcePoint" />
            <mxPoint x="486.5" y="1852" as="targetPoint" />
            <Array as="points">
              <mxPoint x="440" y="2112" />
              <mxPoint x="439.5" y="1926.25" />
              <mxPoint x="439.5" y="1852.25" />
            </Array>
          </mxGeometry>
        </mxCell>
        <mxCell id="5cEx7nMWgyiyxGNApo5d-24" value="" style="rounded=1;whiteSpace=wrap;html=1;" vertex="1" parent="1">
          <mxGeometry x="483.5" y="2042" width="110" height="40" as="geometry" />
        </mxCell>
        <mxCell id="5cEx7nMWgyiyxGNApo5d-25" value="Sequence Diagram" style="text;html=1;strokeColor=none;fillColor=none;align=center;verticalAlign=middle;whiteSpace=wrap;rounded=0;" vertex="1" parent="1">
          <mxGeometry x="498.5" y="2046" width="80" height="32" as="geometry" />
        </mxCell>
        <mxCell id="5cEx7nMWgyiyxGNApo5d-26" value="" style="rounded=1;whiteSpace=wrap;html=1;" vertex="1" parent="1">
          <mxGeometry x="485" y="2092" width="110" height="40" as="geometry" />
        </mxCell>
        <mxCell id="5cEx7nMWgyiyxGNApo5d-27" value="Activity Diagram" style="text;html=1;strokeColor=none;fillColor=none;align=center;verticalAlign=middle;whiteSpace=wrap;rounded=0;" vertex="1" parent="1">
          <mxGeometry x="500" y="2096" width="80" height="32" as="geometry" />
        </mxCell>
        <mxCell id="5cEx7nMWgyiyxGNApo5d-30" value="" style="rounded=1;whiteSpace=wrap;html=1;" vertex="1" parent="1">
          <mxGeometry x="485" y="2197" width="110" height="40" as="geometry" />
        </mxCell>
        <mxCell id="5cEx7nMWgyiyxGNApo5d-31" value="Unit Testing" style="text;html=1;strokeColor=none;fillColor=none;align=center;verticalAlign=middle;whiteSpace=wrap;rounded=0;" vertex="1" parent="1">
          <mxGeometry x="500" y="2201" width="80" height="32" as="geometry" />
        </mxCell>
        <mxCell id="5cEx7nMWgyiyxGNApo5d-32" value="" style="rounded=1;whiteSpace=wrap;html=1;" vertex="1" parent="1">
          <mxGeometry x="485" y="2248" width="110" height="40" as="geometry" />
        </mxCell>
        <mxCell id="5cEx7nMWgyiyxGNApo5d-33" value="Integration Testing" style="text;html=1;strokeColor=none;fillColor=none;align=center;verticalAlign=middle;whiteSpace=wrap;rounded=0;" vertex="1" parent="1">
          <mxGeometry x="500" y="2252" width="80" height="32" as="geometry" />
        </mxCell>
        <mxCell id="5cEx7nMWgyiyxGNApo5d-34" value="" style="rounded=1;whiteSpace=wrap;html=1;" vertex="1" parent="1">
          <mxGeometry x="485" y="2304" width="110" height="40" as="geometry" />
        </mxCell>
        <mxCell id="5cEx7nMWgyiyxGNApo5d-35" value="Functional Testing" style="text;html=1;strokeColor=none;fillColor=none;align=center;verticalAlign=middle;whiteSpace=wrap;rounded=0;" vertex="1" parent="1">
          <mxGeometry x="500" y="2308" width="80" height="32" as="geometry" />
        </mxCell>
        <mxCell id="5cEx7nMWgyiyxGNApo5d-36" value="" style="endArrow=classic;startArrow=classic;html=1;rounded=0;entryX=0;entryY=0.5;entryDx=0;entryDy=0;exitX=0;exitY=0.5;exitDx=0;exitDy=0;" edge="1" parent="1" source="5cEx7nMWgyiyxGNApo5d-34" target="5cEx7nMWgyiyxGNApo5d-30">
          <mxGeometry width="50" height="50" relative="1" as="geometry">
            <mxPoint x="419" y="2319" as="sourcePoint" />
            <mxPoint x="485" y="2164.75" as="targetPoint" />
            <Array as="points">
              <mxPoint x="438" y="2324" />
              <mxPoint x="438" y="2239" />
              <mxPoint x="438" y="2217" />
            </Array>
          </mxGeometry>
        </mxCell>
        <mxCell id="5cEx7nMWgyiyxGNApo5d-37" value="" style="rounded=1;whiteSpace=wrap;html=1;" vertex="1" parent="1">
          <mxGeometry x="485" y="1396.5" width="110" height="40" as="geometry" />
        </mxCell>
        <mxCell id="5cEx7nMWgyiyxGNApo5d-38" value="Customer" style="text;html=1;strokeColor=none;fillColor=none;align=center;verticalAlign=middle;whiteSpace=wrap;rounded=0;" vertex="1" parent="1">
          <mxGeometry x="500" y="1400.5" width="80" height="32" as="geometry" />
        </mxCell>
        <mxCell id="5cEx7nMWgyiyxGNApo5d-39" value="" style="rounded=1;whiteSpace=wrap;html=1;" vertex="1" parent="1">
          <mxGeometry x="485" y="1448.75" width="110" height="40" as="geometry" />
        </mxCell>
        <mxCell id="5cEx7nMWgyiyxGNApo5d-40" value="Stackholders" style="text;html=1;strokeColor=none;fillColor=none;align=center;verticalAlign=middle;whiteSpace=wrap;rounded=0;" vertex="1" parent="1">
          <mxGeometry x="500" y="1452.75" width="80" height="32" as="geometry" />
        </mxCell>
        <mxCell id="5cEx7nMWgyiyxGNApo5d-41" value="" style="rounded=1;whiteSpace=wrap;html=1;" vertex="1" parent="1">
          <mxGeometry x="485" y="1499.75" width="110" height="40" as="geometry" />
        </mxCell>
        <mxCell id="5cEx7nMWgyiyxGNApo5d-42" value="Subject Matter Experts" style="text;html=1;strokeColor=none;fillColor=none;align=center;verticalAlign=middle;whiteSpace=wrap;rounded=0;" vertex="1" parent="1">
          <mxGeometry x="500" y="1503.75" width="80" height="32" as="geometry" />
        </mxCell>
        <mxCell id="5cEx7nMWgyiyxGNApo5d-43" value="" style="rounded=1;whiteSpace=wrap;html=1;" vertex="1" parent="1">
          <mxGeometry x="485" y="1555.75" width="110" height="40" as="geometry" />
        </mxCell>
        <mxCell id="5cEx7nMWgyiyxGNApo5d-44" value="Existing System" style="text;html=1;strokeColor=none;fillColor=none;align=center;verticalAlign=middle;whiteSpace=wrap;rounded=0;" vertex="1" parent="1">
          <mxGeometry x="500" y="1559.75" width="80" height="32" as="geometry" />
        </mxCell>
        <mxCell id="5cEx7nMWgyiyxGNApo5d-45" value="" style="endArrow=classic;startArrow=classic;html=1;rounded=0;entryX=0;entryY=0.5;entryDx=0;entryDy=0;exitX=0;exitY=0.5;exitDx=0;exitDy=0;" edge="1" parent="1">
          <mxGeometry width="50" height="50" relative="1" as="geometry">
            <mxPoint x="486" y="1575.75" as="sourcePoint" />
            <mxPoint x="486" y="1416.5" as="targetPoint" />
            <Array as="points">
              <mxPoint x="439" y="1575.75" />
              <mxPoint x="439" y="1490.75" />
              <mxPoint x="439" y="1416.75" />
            </Array>
          </mxGeometry>
        </mxCell>
        <mxCell id="5cEx7nMWgyiyxGNApo5d-46" value="" style="endArrow=classic;html=1;rounded=0;entryX=0;entryY=0.5;entryDx=0;entryDy=0;" edge="1" parent="1" target="5cEx7nMWgyiyxGNApo5d-41">
          <mxGeometry width="50" height="50" relative="1" as="geometry">
            <mxPoint x="440" y="1520" as="sourcePoint" />
            <mxPoint x="465" y="1537" as="targetPoint" />
          </mxGeometry>
        </mxCell>
        <mxCell id="5cEx7nMWgyiyxGNApo5d-47" value="" style="endArrow=classic;html=1;rounded=0;entryX=0;entryY=0.5;entryDx=0;entryDy=0;" edge="1" parent="1" target="5cEx7nMWgyiyxGNApo5d-39">
          <mxGeometry width="50" height="50" relative="1" as="geometry">
            <mxPoint x="440" y="1469" as="sourcePoint" />
            <mxPoint x="450" y="1469" as="targetPoint" />
          </mxGeometry>
        </mxCell>
        <mxCell id="5cEx7nMWgyiyxGNApo5d-48" value="" style="endArrow=classic;html=1;rounded=0;exitX=1;exitY=0.5;exitDx=0;exitDy=0;" edge="1" parent="1" source="To-OXU-4lQRGdfj8dpl--9">
          <mxGeometry width="50" height="50" relative="1" as="geometry">
            <mxPoint x="358" y="1470" as="sourcePoint" />
            <mxPoint x="440" y="1490" as="targetPoint" />
          </mxGeometry>
        </mxCell>
        <mxCell id="5cEx7nMWgyiyxGNApo5d-49" value="" style="endArrow=classic;html=1;rounded=0;entryX=0;entryY=0.5;entryDx=0;entryDy=0;" edge="1" parent="1" target="To-OXU-4lQRGdfj8dpl--11">
          <mxGeometry width="50" height="50" relative="1" as="geometry">
            <mxPoint x="200" y="1721" as="sourcePoint" />
            <mxPoint x="188" y="1681" as="targetPoint" />
          </mxGeometry>
        </mxCell>
        <mxCell id="5cEx7nMWgyiyxGNApo5d-50" value="" style="endArrow=classic;html=1;rounded=0;entryX=0;entryY=0.5;entryDx=0;entryDy=0;" edge="1" parent="1" target="5cEx7nMWgyiyxGNApo5d-4">
          <mxGeometry width="50" height="50" relative="1" as="geometry">
            <mxPoint x="440" y="1687" as="sourcePoint" />
            <mxPoint x="452" y="1659" as="targetPoint" />
          </mxGeometry>
        </mxCell>
        <mxCell id="5cEx7nMWgyiyxGNApo5d-51" value="" style="endArrow=classic;html=1;rounded=0;entryX=0;entryY=0.5;entryDx=0;entryDy=0;" edge="1" parent="1" target="5cEx7nMWgyiyxGNApo5d-6">
          <mxGeometry width="50" height="50" relative="1" as="geometry">
            <mxPoint x="440" y="1740" as="sourcePoint" />
            <mxPoint x="425" y="1728" as="targetPoint" />
          </mxGeometry>
        </mxCell>
        <mxCell id="5cEx7nMWgyiyxGNApo5d-52" value="" style="endArrow=classic;html=1;rounded=0;exitX=1;exitY=0.5;exitDx=0;exitDy=0;" edge="1" parent="1" source="To-OXU-4lQRGdfj8dpl--11">
          <mxGeometry width="50" height="50" relative="1" as="geometry">
            <mxPoint x="364" y="1740" as="sourcePoint" />
            <mxPoint x="440" y="1720" as="targetPoint" />
          </mxGeometry>
        </mxCell>
        <mxCell id="5cEx7nMWgyiyxGNApo5d-53" value="" style="endArrow=classic;html=1;rounded=0;entryX=0;entryY=0.5;entryDx=0;entryDy=0;" edge="1" parent="1" target="5cEx7nMWgyiyxGNApo5d-13">
          <mxGeometry width="50" height="50" relative="1" as="geometry">
            <mxPoint x="440" y="1904" as="sourcePoint" />
            <mxPoint x="474" y="1906" as="targetPoint" />
          </mxGeometry>
        </mxCell>
        <mxCell id="5cEx7nMWgyiyxGNApo5d-54" value="" style="endArrow=classic;html=1;rounded=0;entryX=0;entryY=0.5;entryDx=0;entryDy=0;" edge="1" parent="1" target="5cEx7nMWgyiyxGNApo5d-15">
          <mxGeometry width="50" height="50" relative="1" as="geometry">
            <mxPoint x="440" y="1955" as="sourcePoint" />
            <mxPoint x="460" y="1971.25" as="targetPoint" />
          </mxGeometry>
        </mxCell>
        <mxCell id="5cEx7nMWgyiyxGNApo5d-55" value="" style="endArrow=classic;html=1;rounded=0;entryX=0;entryY=0.5;entryDx=0;entryDy=0;" edge="1" parent="1" target="5cEx7nMWgyiyxGNApo5d-17">
          <mxGeometry width="50" height="50" relative="1" as="geometry">
            <mxPoint x="440" y="2011" as="sourcePoint" />
            <mxPoint x="440" y="2020" as="targetPoint" />
          </mxGeometry>
        </mxCell>
        <mxCell id="5cEx7nMWgyiyxGNApo5d-56" value="" style="endArrow=classic;html=1;rounded=0;entryX=0;entryY=0.5;entryDx=0;entryDy=0;" edge="1" parent="1" target="5cEx7nMWgyiyxGNApo5d-24">
          <mxGeometry width="50" height="50" relative="1" as="geometry">
            <mxPoint x="440" y="2062" as="sourcePoint" />
            <mxPoint x="417" y="2082" as="targetPoint" />
          </mxGeometry>
        </mxCell>
        <mxCell id="5cEx7nMWgyiyxGNApo5d-57" value="" style="endArrow=classic;html=1;rounded=0;exitX=1;exitY=0.5;exitDx=0;exitDy=0;" edge="1" parent="1" source="To-OXU-4lQRGdfj8dpl--13">
          <mxGeometry width="50" height="50" relative="1" as="geometry">
            <mxPoint x="357" y="2031.25" as="sourcePoint" />
            <mxPoint x="440" y="1979" as="targetPoint" />
          </mxGeometry>
        </mxCell>
        <mxCell id="5cEx7nMWgyiyxGNApo5d-58" value="" style="endArrow=classic;html=1;rounded=0;entryX=0;entryY=0.5;entryDx=0;entryDy=0;" edge="1" parent="1" target="To-OXU-4lQRGdfj8dpl--13">
          <mxGeometry width="50" height="50" relative="1" as="geometry">
            <mxPoint x="200" y="1979" as="sourcePoint" />
            <mxPoint x="195" y="2010" as="targetPoint" />
          </mxGeometry>
        </mxCell>
        <mxCell id="5cEx7nMWgyiyxGNApo5d-59" value="" style="endArrow=classic;html=1;rounded=0;entryX=0;entryY=0.5;entryDx=0;entryDy=0;" edge="1" parent="1" target="To-OXU-4lQRGdfj8dpl--15">
          <mxGeometry width="50" height="50" relative="1" as="geometry">
            <mxPoint x="200" y="2175" as="sourcePoint" />
            <mxPoint x="180" y="2166" as="targetPoint" />
          </mxGeometry>
        </mxCell>
        <mxCell id="5cEx7nMWgyiyxGNApo5d-60" value="" style="endArrow=classic;html=1;rounded=0;entryX=0;entryY=0.5;entryDx=0;entryDy=0;" edge="1" parent="1" target="5cEx7nMWgyiyxGNApo5d-32">
          <mxGeometry width="50" height="50" relative="1" as="geometry">
            <mxPoint x="440" y="2268" as="sourcePoint" />
            <mxPoint x="347" y="2232" as="targetPoint" />
          </mxGeometry>
        </mxCell>
        <mxCell id="5cEx7nMWgyiyxGNApo5d-61" value="" style="endArrow=classic;html=1;rounded=0;exitX=1;exitY=0.5;exitDx=0;exitDy=0;" edge="1" parent="1" source="To-OXU-4lQRGdfj8dpl--17">
          <mxGeometry width="50" height="50" relative="1" as="geometry">
            <mxPoint x="350" y="2333" as="sourcePoint" />
            <mxPoint x="440" y="2268" as="targetPoint" />
          </mxGeometry>
        </mxCell>
        <mxCell id="5cEx7nMWgyiyxGNApo5d-62" value="" style="endArrow=classic;html=1;rounded=0;entryX=0;entryY=0.5;entryDx=0;entryDy=0;" edge="1" parent="1" target="To-OXU-4lQRGdfj8dpl--17">
          <mxGeometry width="50" height="50" relative="1" as="geometry">
            <mxPoint x="200" y="2268" as="sourcePoint" />
            <mxPoint x="190" y="2259" as="targetPoint" />
          </mxGeometry>
        </mxCell>
        <mxCell id="5cEx7nMWgyiyxGNApo5d-63" value="" style="endArrow=classic;html=1;rounded=0;entryX=0;entryY=0.5;entryDx=0;entryDy=0;" edge="1" parent="1" target="To-OXU-4lQRGdfj8dpl--19">
          <mxGeometry width="50" height="50" relative="1" as="geometry">
            <mxPoint x="200" y="2383" as="sourcePoint" />
            <mxPoint x="150" y="2366.5" as="targetPoint" />
          </mxGeometry>
        </mxCell>
      </root>
    </mxGraphModel>
  </diagram>
</mxfile>
